# Blender 4.2.1 LTS
# www.blender.org
mtllib street_straight.mtl
o Cube
v 0.324806 0.054725 0.119070
v 0.318469 -0.019429 0.124789
v 0.323504 0.053811 0.202699
v 0.325772 -0.024737 0.200726
v 0.246340 0.052336 0.116593
v 0.253352 -0.019429 0.124789
v 0.245893 0.050352 0.194242
v 0.246060 -0.019579 0.198956
v 0.246930 -0.026203 0.158994
v 0.285910 -0.026233 0.117985
v 0.324890 0.014776 0.118014
v 0.238746 0.010358 0.204817
v 0.327624 0.015086 0.203453
v 0.246930 0.014776 0.118014
v 0.287204 0.065893 0.207082
v 0.330055 0.059787 0.155791
v 0.243339 0.058490 0.159691
v 0.284221 0.059256 0.110781
v 0.324890 -0.026203 0.158994
v 0.288457 0.079689 0.161482
v 0.284395 0.012690 0.220110
v 0.224915 0.010484 0.162349
v 0.347674 0.011813 0.163335
v 0.285910 0.014776 0.102922
vn 0.2807 0.9128 -0.2967
vn -0.3213 0.9122 -0.2543
vn -0.4142 0.8762 0.2465
vn 0.3948 0.8911 0.2238
vn 0.2696 0.1465 0.9517
vn -0.3457 0.2649 0.9002
vn -0.8924 -0.4168 0.1732
vn -0.9249 0.3032 0.2293
vn -0.9440 0.1837 -0.2740
vn -0.8590 -0.3620 -0.3620
vn 0.8606 -0.3601 -0.3601
vn 0.9322 0.1639 -0.3227
vn 0.9215 0.2588 0.2897
vn 0.9207 -0.3126 0.2337
vn -0.3052 -0.2895 -0.9072
vn -0.2675 0.0680 -0.9612
vn 0.2859 0.1066 -0.9523
vn 0.3052 -0.2895 -0.9072
vt 0.677176 0.938019
s 0
usemtl Material
f 1/1/1 18/1/1 20/1/1 16/1/1
f 18/1/2 5/1/2 17/1/2 20/1/2
f 20/1/3 17/1/3 7/1/3 15/1/3
f 16/1/4 20/1/4 15/1/4 3/1/4
f 13/1/5 3/1/5 15/1/5 21/1/5
f 21/1/6 15/1/6 7/1/6 12/1/6
f 8/1/7 12/1/7 22/1/7 9/1/7
f 12/1/8 7/1/8 17/1/8 22/1/8
f 22/1/9 17/1/9 5/1/9 14/1/9
f 9/1/10 22/1/10 14/1/10 6/1/10
f 2/1/11 11/1/11 23/1/11 19/1/11
f 11/1/12 1/1/12 16/1/12 23/1/12
f 23/1/13 16/1/13 3/1/13 13/1/13
f 19/1/14 23/1/14 13/1/14 4/1/14
f 6/1/15 14/1/15 24/1/15 10/1/15
f 14/1/16 5/1/16 18/1/16 24/1/16
f 24/1/17 18/1/17 1/1/17 11/1/17
f 10/1/18 24/1/18 11/1/18 2/1/18
o Cube.001
v 0.734515 -0.012704 0.134000
v 0.720052 0.061649 0.168021
v 0.707208 0.024923 0.235066
v 0.653986 -0.013379 0.115868
v 0.648021 0.058996 0.148197
v 0.629785 0.026404 0.213831
v 0.631753 -0.011099 0.204749
v 0.722682 -0.032197 0.165146
v 0.623640 0.049499 0.186850
v 0.716570 0.046415 0.209635
v 0.643130 -0.029432 0.148234
v 0.693265 0.071319 0.151066
v 0.738863 0.026590 0.143757
v 0.669921 0.035844 0.241890
v 0.645485 0.024403 0.125666
v 0.688551 -0.019301 0.112179
v 0.711305 -0.013864 0.221660
v 0.693667 0.037559 0.118947
v 0.670309 0.061841 0.206831
v 0.615167 0.003992 0.170900
v 0.668379 -0.019714 0.226840
v 0.742358 0.010430 0.196923
vn 0.4569 0.1068 -0.8831
vn -0.1373 0.1660 -0.9765
vn -0.1993 0.6157 -0.7623
vn 0.5183 0.6239 -0.5849
vn 0.2626 0.7379 0.6217
vn 0.2368 0.9245 0.2989
vn -0.2719 0.9607 0.0567
vn -0.4825 0.6645 0.5706
vn -0.9419 -0.0272 0.3349
vn -0.8412 0.3237 -0.4331
vn -0.8296 -0.1846 -0.5269
vn 0.1244 -0.2834 0.9509
vn -0.5326 -0.2147 0.8187
vn 0.9621 -0.2721 -0.0199
vn 0.8710 0.4664 0.1544
vn 0.7463 0.0669 0.6623
vt 0.677176 0.938019
s 0
usemtl Material
f 25/2/19 40/2/19 42/2/19 37/2/19
f 40/2/20 28/2/20 39/2/20 42/2/20
f 42/2/21 39/2/21 29/2/21 36/2/21
f 37/2/22 42/2/22 36/2/22 26/2/22
f 27/2/23 34/2/23 43/2/23 38/2/23
f 34/2/24 26/2/24 36/2/24 43/2/24
f 43/2/25 36/2/25 29/2/25 33/2/25
f 38/2/26 43/2/26 33/2/26 30/2/26
f 30/2/27 33/2/27 44/2/27 31/2/27
f 33/2/28 29/2/28 39/2/28 44/2/28
f 44/2/29 39/2/29 28/2/29 35/2/29
f 45/2/30 41/2/30 27/2/30 38/2/30
f 31/2/31 45/2/31 38/2/31 30/2/31
f 32/2/32 25/2/32 37/2/32 46/2/32
f 46/2/33 37/2/33 26/2/33 34/2/33
f 41/2/34 46/2/34 34/2/34 27/2/34
o Cube.002
v 0.661685 0.006320 0.591220
v 0.721101 -0.007974 0.659888
v 0.660229 0.020822 0.655249
v 0.743874 0.028588 0.570424
v 0.687050 0.053641 0.575601
v 0.748093 0.047814 0.634154
v 0.695082 0.076307 0.634906
v 0.686837 0.068955 0.601915
v 0.668697 0.031069 0.577501
v 0.684760 -0.013386 0.588733
v 0.721161 0.071212 0.639334
v 0.690045 0.004445 0.659743
v 0.715128 0.043269 0.570034
v 0.744760 0.014675 0.655338
v 0.719747 -0.026033 0.623112
v 0.669922 0.054340 0.654445
v 0.752816 0.038405 0.605465
v 0.733975 -0.003020 0.575039
v 0.656469 0.012301 0.620614
v 0.751521 -0.002305 0.618721
v 0.706250 0.040689 0.662979
v 0.723606 0.071303 0.601059
v 0.660154 0.046566 0.610580
v 0.676870 -0.018201 0.631375
v 0.698864 0.011419 0.566958
vn 0.9339 -0.2151 -0.2855
vn 0.9858 0.0161 0.1669
vn 0.6302 -0.6816 0.3718
vn -0.1791 0.0322 0.9833
vn 0.0870 -0.0367 0.9955
vn 0.4669 0.4158 0.7805
vn 0.0251 0.6236 0.7813
vn 0.0494 0.9932 -0.1052
vn 0.7077 0.7061 -0.0225
vn 0.5684 0.6403 -0.5167
vn 0.0383 0.7944 -0.6061
vn -0.6906 0.5953 -0.4106
vn -0.9675 0.0787 -0.2401
vn -0.9697 0.2111 0.1233
vn -0.6493 0.7605 0.0025
vn -0.7399 -0.6612 -0.1239
vn -0.6756 -0.5724 0.4647
vn -0.1940 0.1444 -0.9703
vn 0.1016 -0.0660 -0.9926
vn -0.4709 -0.3722 -0.7998
vt 0.677176 0.938019
s 0
usemtl Material
f 64/3/35 50/3/35 63/3/35 66/3/35
f 66/3/36 63/3/36 52/3/36 60/3/36
f 61/3/37 66/3/37 60/3/37 48/3/37
f 49/3/38 58/3/38 67/3/38 62/3/38
f 58/3/39 48/3/39 60/3/39 67/3/39
f 67/3/40 60/3/40 52/3/40 57/3/40
f 62/3/41 67/3/41 57/3/41 53/3/41
f 53/3/42 57/3/42 68/3/42 54/3/42
f 57/3/43 52/3/43 63/3/43 68/3/43
f 68/3/44 63/3/44 50/3/44 59/3/44
f 54/3/45 68/3/45 59/3/45 51/3/45
f 51/3/46 55/3/46 69/3/46 54/3/46
f 55/3/47 47/3/47 65/3/47 69/3/47
f 69/3/48 65/3/48 49/3/48 62/3/48
f 54/3/49 69/3/49 62/3/49 53/3/49
f 47/3/50 56/3/50 70/3/50 65/3/50
f 65/3/51 70/3/51 58/3/51 49/3/51
f 51/3/52 59/3/52 71/3/52 55/3/52
f 59/3/53 50/3/53 64/3/53 71/3/53
f 55/3/54 71/3/54 56/3/54 47/3/54
o Cube.003
v 0.239506 0.006320 0.527585
v 0.298923 -0.007974 0.596254
v 0.238050 0.020822 0.591614
v 0.321696 0.028588 0.506789
v 0.264872 0.053641 0.511967
v 0.325914 0.047814 0.570519
v 0.272904 0.076307 0.571272
v 0.264659 0.068955 0.538280
v 0.246518 0.031069 0.513866
v 0.262582 -0.013386 0.525098
v 0.298982 0.071212 0.575699
v 0.267866 0.004445 0.596109
v 0.292950 0.043269 0.506399
v 0.322582 0.014675 0.591703
v 0.297568 -0.026033 0.559477
v 0.247744 0.054340 0.590810
v 0.330638 0.038405 0.541830
v 0.311796 -0.003020 0.511404
v 0.234291 0.012301 0.556979
v 0.329343 -0.002305 0.555087
v 0.284072 0.040689 0.599345
v 0.301428 0.071303 0.537425
v 0.237976 0.046566 0.546946
v 0.254692 -0.018201 0.567740
v 0.276686 0.011419 0.503324
vn 0.9339 -0.2151 -0.2855
vn 0.9858 0.0161 0.1669
vn 0.6302 -0.6816 0.3718
vn -0.1791 0.0322 0.9833
vn 0.0870 -0.0367 0.9955
vn 0.4669 0.4158 0.7805
vn 0.0251 0.6236 0.7813
vn 0.0494 0.9932 -0.1052
vn 0.7077 0.7061 -0.0225
vn 0.5684 0.6403 -0.5167
vn 0.0383 0.7944 -0.6061
vn -0.6906 0.5953 -0.4106
vn -0.9675 0.0787 -0.2401
vn -0.9697 0.2111 0.1233
vn -0.6493 0.7605 0.0025
vn -0.7399 -0.6612 -0.1239
vn -0.6756 -0.5724 0.4647
vn -0.1940 0.1444 -0.9703
vn 0.1016 -0.0660 -0.9926
vn -0.4709 -0.3722 -0.7998
vt 0.677176 0.938019
s 0
usemtl Material
f 89/4/55 75/4/55 88/4/55 91/4/55
f 91/4/56 88/4/56 77/4/56 85/4/56
f 86/4/57 91/4/57 85/4/57 73/4/57
f 74/4/58 83/4/58 92/4/58 87/4/58
f 83/4/59 73/4/59 85/4/59 92/4/59
f 92/4/60 85/4/60 77/4/60 82/4/60
f 87/4/61 92/4/61 82/4/61 78/4/61
f 78/4/62 82/4/62 93/4/62 79/4/62
f 82/4/63 77/4/63 88/4/63 93/4/63
f 93/4/64 88/4/64 75/4/64 84/4/64
f 79/4/65 93/4/65 84/4/65 76/4/65
f 76/4/66 80/4/66 94/4/66 79/4/66
f 80/4/67 72/4/67 90/4/67 94/4/67
f 94/4/68 90/4/68 74/4/68 87/4/68
f 79/4/69 94/4/69 87/4/69 78/4/69
f 72/4/70 81/4/70 95/4/70 90/4/70
f 90/4/71 95/4/71 83/4/71 74/4/71
f 76/4/72 84/4/72 96/4/72 80/4/72
f 84/4/73 75/4/73 89/4/73 96/4/73
f 80/4/74 96/4/74 81/4/74 72/4/74
o Cube.004
v 0.750713 -0.020948 0.379109
v 0.739099 0.038758 0.406428
v 0.728785 0.009267 0.460264
v 0.686048 -0.021490 0.364549
v 0.681258 0.036627 0.390509
v 0.666615 0.010456 0.443213
v 0.668195 -0.019659 0.435920
v 0.661680 0.029001 0.421548
v 0.736303 0.026524 0.439844
v 0.717589 0.046522 0.392813
v 0.754204 0.010605 0.386944
v 0.698844 0.018036 0.465744
v 0.679222 0.008849 0.372417
v 0.713804 -0.026245 0.361586
v 0.732075 -0.021879 0.449500
v 0.717912 0.019414 0.367022
v 0.699156 0.038912 0.437592
v 0.654877 -0.007541 0.408739
v 0.697605 -0.026577 0.453659
v 0.757011 -0.002372 0.429635
vn 0.4569 0.1068 -0.8831
vn -0.1373 0.1660 -0.9765
vn -0.1993 0.6157 -0.7623
vn 0.5183 0.6239 -0.5849
vn 0.2626 0.7379 0.6217
vn 0.2368 0.9245 0.2989
vn -0.2719 0.9607 0.0567
vn -0.4825 0.6645 0.5706
vn -0.9419 -0.0272 0.3349
vn -0.8412 0.3237 -0.4331
vn 0.1244 -0.2834 0.9509
vn -0.5326 -0.2147 0.8187
vn 0.8710 0.4664 0.1544
vn 0.7463 0.0669 0.6623
vt 0.677176 0.938019
s 0
usemtl Material
f 97/5/75 110/5/75 112/5/75 107/5/75
f 110/5/76 100/5/76 109/5/76 112/5/76
f 112/5/77 109/5/77 101/5/77 106/5/77
f 107/5/78 112/5/78 106/5/78 98/5/78
f 99/5/79 105/5/79 113/5/79 108/5/79
f 105/5/80 98/5/80 106/5/80 113/5/80
f 113/5/81 106/5/81 101/5/81 104/5/81
f 108/5/82 113/5/82 104/5/82 102/5/82
f 102/5/83 104/5/83 114/5/83 103/5/83
f 104/5/84 101/5/84 109/5/84 114/5/84
f 115/5/85 111/5/85 99/5/85 108/5/85
f 103/5/86 115/5/86 108/5/86 102/5/86
f 116/5/87 107/5/87 98/5/87 105/5/87
f 111/5/88 116/5/88 105/5/88 99/5/88
o Cube.005
v 0.743853 -0.012300 0.805880
v 0.729251 0.062770 0.840229
v 0.716283 0.025689 0.907920
v 0.662547 -0.012982 0.787573
v 0.656524 0.060091 0.820213
v 0.638113 0.027184 0.886480
v 0.640100 -0.010680 0.877311
v 0.731905 -0.031981 0.837326
v 0.631908 0.050503 0.859240
v 0.725735 0.047388 0.882244
v 0.651587 -0.029190 0.820251
v 0.702205 0.072533 0.823110
v 0.748243 0.027372 0.815731
v 0.678636 0.036715 0.914810
v 0.653964 0.025164 0.797465
v 0.697446 -0.018961 0.783848
v 0.720418 -0.013471 0.894385
v 0.702611 0.038447 0.790682
v 0.679028 0.062963 0.879413
v 0.623354 0.004556 0.843136
v 0.677079 -0.019378 0.899615
v 0.751772 0.011056 0.869409
vn 0.4569 0.1068 -0.8831
vn -0.1373 0.1660 -0.9765
vn -0.1993 0.6157 -0.7623
vn 0.5183 0.6239 -0.5849
vn 0.2626 0.7379 0.6217
vn 0.2368 0.9245 0.2989
vn -0.2719 0.9607 0.0567
vn -0.4825 0.6645 0.5706
vn -0.9419 -0.0272 0.3349
vn -0.8412 0.3237 -0.4331
vn -0.8296 -0.1846 -0.5269
vn 0.1244 -0.2834 0.9509
vn -0.5326 -0.2147 0.8187
vn 0.9621 -0.2721 -0.0199
vn 0.8710 0.4664 0.1544
vn 0.7463 0.0669 0.6623
vt 0.677176 0.938019
s 0
usemtl Material
f 117/6/89 132/6/89 134/6/89 129/6/89
f 132/6/90 120/6/90 131/6/90 134/6/90
f 134/6/91 131/6/91 121/6/91 128/6/91
f 129/6/92 134/6/92 128/6/92 118/6/92
f 119/6/93 126/6/93 135/6/93 130/6/93
f 126/6/94 118/6/94 128/6/94 135/6/94
f 135/6/95 128/6/95 121/6/95 125/6/95
f 130/6/96 135/6/96 125/6/96 122/6/96
f 122/6/97 125/6/97 136/6/97 123/6/97
f 125/6/98 121/6/98 131/6/98 136/6/98
f 136/6/99 131/6/99 120/6/99 127/6/99
f 137/6/100 133/6/100 119/6/100 130/6/100
f 123/6/101 137/6/101 130/6/101 122/6/101
f 124/6/102 117/6/102 129/6/102 138/6/102
f 138/6/103 129/6/103 118/6/103 126/6/103
f 133/6/104 138/6/104 126/6/104 119/6/104
o Cube.006
v 0.337534 -0.008529 0.798311
v 0.321628 0.073243 0.835727
v 0.307503 0.032852 0.909461
v 0.248970 -0.009271 0.778370
v 0.242410 0.070325 0.813924
v 0.222354 0.034481 0.886107
v 0.224519 -0.006764 0.876119
v 0.324520 -0.029966 0.832564
v 0.215596 0.059881 0.856435
v 0.317799 0.056488 0.881493
v 0.237031 -0.026926 0.813966
v 0.292168 0.083877 0.817080
v 0.342316 0.034685 0.809042
v 0.266495 0.044863 0.916966
v 0.239621 0.032280 0.789146
v 0.286984 -0.015784 0.774313
v 0.312008 -0.009804 0.894718
v 0.292610 0.046749 0.781757
v 0.266922 0.073454 0.878409
v 0.206278 0.009833 0.838893
v 0.264799 -0.016239 0.900415
v 0.346160 0.016913 0.867512
vn 0.4569 0.1068 -0.8831
vn -0.1373 0.1660 -0.9765
vn -0.1993 0.6157 -0.7623
vn 0.5183 0.6239 -0.5849
vn 0.2626 0.7379 0.6217
vn 0.2368 0.9245 0.2989
vn -0.2719 0.9607 0.0567
vn -0.4825 0.6645 0.5706
vn -0.9419 -0.0272 0.3349
vn -0.8412 0.3237 -0.4331
vn -0.8296 -0.1846 -0.5269
vn 0.1244 -0.2834 0.9509
vn -0.5326 -0.2147 0.8187
vn 0.9621 -0.2721 -0.0199
vn 0.8710 0.4664 0.1544
vn 0.7463 0.0669 0.6623
vt 0.677176 0.938019
s 0
usemtl Material
f 139/7/105 154/7/105 156/7/105 151/7/105
f 154/7/106 142/7/106 153/7/106 156/7/106
f 156/7/107 153/7/107 143/7/107 150/7/107
f 151/7/108 156/7/108 150/7/108 140/7/108
f 141/7/109 148/7/109 157/7/109 152/7/109
f 148/7/110 140/7/110 150/7/110 157/7/110
f 157/7/111 150/7/111 143/7/111 147/7/111
f 152/7/112 157/7/112 147/7/112 144/7/112
f 144/7/113 147/7/113 158/7/113 145/7/113
f 147/7/114 143/7/114 153/7/114 158/7/114
f 158/7/115 153/7/115 142/7/115 149/7/115
f 159/7/116 155/7/116 141/7/116 152/7/116
f 145/7/117 159/7/117 152/7/117 144/7/117
f 146/7/118 139/7/118 151/7/118 160/7/118
f 160/7/119 151/7/119 140/7/119 148/7/119
f 155/7/120 160/7/120 148/7/120 141/7/120
o Cube.007
v 0.354713 -0.012704 0.331497
v 0.340250 0.061649 0.365519
v 0.327406 0.024923 0.432563
v 0.274184 -0.013379 0.313365
v 0.268219 0.058996 0.345694
v 0.249983 0.026404 0.411328
v 0.251951 -0.011099 0.402246
v 0.342879 -0.032197 0.362643
v 0.243838 0.049499 0.384348
v 0.336768 0.046415 0.407132
v 0.263328 -0.029432 0.345731
v 0.313463 0.071319 0.348563
v 0.359061 0.026590 0.341254
v 0.290119 0.035844 0.439387
v 0.265683 0.024403 0.323163
v 0.308749 -0.019301 0.309676
v 0.331502 -0.013864 0.419158
v 0.313865 0.037559 0.316444
v 0.290507 0.061841 0.404328
v 0.235365 0.003992 0.368397
v 0.288576 -0.019714 0.424337
v 0.362556 0.010430 0.394420
vn 0.4569 0.1068 -0.8831
vn -0.1373 0.1660 -0.9765
vn -0.1993 0.6157 -0.7623
vn 0.5183 0.6239 -0.5849
vn 0.2626 0.7379 0.6217
vn 0.2368 0.9245 0.2989
vn -0.2719 0.9607 0.0567
vn -0.4825 0.6645 0.5706
vn -0.9419 -0.0272 0.3349
vn -0.8412 0.3237 -0.4331
vn -0.8296 -0.1846 -0.5269
vn 0.1244 -0.2834 0.9509
vn -0.5326 -0.2147 0.8187
vn 0.9621 -0.2721 -0.0199
vn 0.8710 0.4664 0.1544
vn 0.7463 0.0669 0.6623
vt 0.677176 0.938019
s 0
usemtl Material
f 161/8/121 176/8/121 178/8/121 173/8/121
f 176/8/122 164/8/122 175/8/122 178/8/122
f 178/8/123 175/8/123 165/8/123 172/8/123
f 173/8/124 178/8/124 172/8/124 162/8/124
f 163/8/125 170/8/125 179/8/125 174/8/125
f 170/8/126 162/8/126 172/8/126 179/8/126
f 179/8/127 172/8/127 165/8/127 169/8/127
f 174/8/128 179/8/128 169/8/128 166/8/128
f 166/8/129 169/8/129 180/8/129 167/8/129
f 169/8/130 165/8/130 175/8/130 180/8/130
f 180/8/131 175/8/131 164/8/131 171/8/131
f 181/8/132 177/8/132 163/8/132 174/8/132
f 167/8/133 181/8/133 174/8/133 166/8/133
f 168/8/134 161/8/134 173/8/134 182/8/134
f 182/8/135 173/8/135 162/8/135 170/8/135
f 177/8/136 182/8/136 170/8/136 163/8/136
o Cube.008
v 0.460755 -0.016767 0.871111
v 0.471953 0.035762 0.847516
v 0.482968 0.009816 0.800564
v 0.517073 -0.017244 0.886251
v 0.522223 0.033887 0.863604
v 0.537004 0.010862 0.817804
v 0.535350 -0.015633 0.824157
v 0.470014 -0.030539 0.849470
v 0.540557 0.027178 0.837027
v 0.475621 0.024999 0.818243
v 0.525677 -0.028586 0.863720
v 0.490370 0.042594 0.860264
v 0.457970 0.010993 0.864098
v 0.509487 0.017531 0.796830
v 0.523359 0.009448 0.879582
v 0.492567 -0.021428 0.887851
v 0.479687 -0.017587 0.809907
v 0.489152 0.018743 0.882924
v 0.508194 0.035898 0.821567
v 0.546074 -0.004972 0.848533
v 0.510139 -0.021720 0.807499
v 0.457048 -0.000424 0.826467
vn -0.4928 0.1068 0.8636
vn 0.0970 0.1660 0.9813
vn 0.1678 0.6157 0.7699
vn -0.5419 0.6239 0.5631
vn -0.2368 0.7379 -0.6319
vn -0.2243 0.9245 -0.3084
vn 0.2740 0.9607 -0.0455
vn 0.5056 0.6645 -0.5503
vn 0.9548 -0.0272 -0.2959
vn 0.8227 0.3237 0.4673
vn 0.8072 -0.1846 0.5606
vn -0.0852 -0.2834 -0.9552
vn 0.5658 -0.2147 -0.7961
vn -0.9621 -0.2721 -0.0197
vn -0.8639 0.4664 -0.1901
vn -0.7184 0.0669 -0.6924
vt 0.677176 0.938019
s 0
usemtl Material
f 183/9/137 198/9/137 200/9/137 195/9/137
f 198/9/138 186/9/138 197/9/138 200/9/138
f 200/9/139 197/9/139 187/9/139 194/9/139
f 195/9/140 200/9/140 194/9/140 184/9/140
f 185/9/141 192/9/141 201/9/141 196/9/141
f 192/9/142 184/9/142 194/9/142 201/9/142
f 201/9/143 194/9/143 187/9/143 191/9/143
f 196/9/144 201/9/144 191/9/144 188/9/144
f 188/9/145 191/9/145 202/9/145 189/9/145
f 191/9/146 187/9/146 197/9/146 202/9/146
f 202/9/147 197/9/147 186/9/147 193/9/147
f 203/9/148 199/9/148 185/9/148 196/9/148
f 189/9/149 203/9/149 196/9/149 188/9/149
f 190/9/150 183/9/150 195/9/150 204/9/150
f 204/9/151 195/9/151 184/9/151 192/9/151
f 199/9/152 204/9/152 192/9/152 185/9/152
o Cube.009
v 0.548243 -0.003328 0.459329
v 0.508297 -0.013426 0.409130
v 0.551131 0.006918 0.414174
v 0.489621 0.012405 0.471620
v 0.529884 0.030104 0.469617
v 0.488496 0.025988 0.426511
v 0.525937 0.046118 0.427520
v 0.530799 0.040924 0.451049
v 0.542894 0.014158 0.468809
v 0.531882 -0.017249 0.460414
v 0.507658 0.042518 0.423637
v 0.530215 -0.004652 0.410135
v 0.509902 0.022776 0.472731
v 0.491464 0.002575 0.411654
v 0.508184 -0.026184 0.435129
v 0.544266 0.030599 0.414460
v 0.484328 0.019341 0.446625
v 0.496744 -0.009926 0.468650
v 0.552779 0.000898 0.438732
v 0.485627 -0.009421 0.437305
v 0.518870 0.020954 0.407380
v 0.504819 0.042582 0.450584
v 0.549886 0.025106 0.445707
v 0.538691 -0.020651 0.430543
v 0.521293 0.000275 0.475375
vn -0.9449 -0.2151 0.2468
vn -0.9781 0.0161 -0.2073
vn -0.6144 -0.6816 -0.3974
vn 0.2194 0.0322 -0.9751
vn -0.0460 -0.0367 -0.9983
vn -0.4344 0.4158 -0.7990
vn 0.0071 0.6236 -0.7817
vn -0.0537 0.9932 0.1031
vn -0.7081 0.7061 -0.0066
vn -0.5892 0.6403 0.4929
vn -0.0632 0.7944 0.6040
vn 0.6732 0.5953 0.4387
vn 0.9568 0.0787 0.2797
vn 0.9739 0.2111 -0.0833
vn 0.6489 0.7605 0.0242
vn 0.7342 -0.6612 0.1543
vn 0.6941 -0.5724 -0.4366
vn 0.1539 0.1444 0.9775
vn -0.1423 -0.0660 0.9876
vn 0.4376 -0.3722 0.8185
vt 0.677176 0.938019
s 0
usemtl Material
f 222/10/153 208/10/153 221/10/153 224/10/153
f 224/10/154 221/10/154 210/10/154 218/10/154
f 219/10/155 224/10/155 218/10/155 206/10/155
f 207/10/156 216/10/156 225/10/156 220/10/156
f 216/10/157 206/10/157 218/10/157 225/10/157
f 225/10/158 218/10/158 210/10/158 215/10/158
f 220/10/159 225/10/159 215/10/159 211/10/159
f 211/10/160 215/10/160 226/10/160 212/10/160
f 215/10/161 210/10/161 221/10/161 226/10/161
f 226/10/162 221/10/162 208/10/162 217/10/162
f 212/10/163 226/10/163 217/10/163 209/10/163
f 209/10/164 213/10/164 227/10/164 212/10/164
f 213/10/165 205/10/165 223/10/165 227/10/165
f 227/10/166 223/10/166 207/10/166 220/10/166
f 212/10/167 227/10/167 220/10/167 211/10/167
f 205/10/168 214/10/168 228/10/168 223/10/168
f 223/10/169 228/10/169 216/10/169 207/10/169
f 209/10/170 217/10/170 229/10/170 213/10/170
f 217/10/171 208/10/171 222/10/171 229/10/171
f 213/10/172 229/10/172 214/10/172 205/10/172
o Cube.010
v 0.452648 -0.022591 0.652045
v 0.461640 0.019590 0.633098
v 0.470485 -0.001245 0.595395
v 0.497871 -0.022974 0.664202
v 0.502006 0.018084 0.646016
v 0.513875 -0.000405 0.609239
v 0.512547 -0.021681 0.614341
v 0.516728 0.012697 0.624675
v 0.464585 0.010947 0.609591
v 0.476428 0.025075 0.643334
v 0.450411 -0.000300 0.646413
v 0.491779 0.004950 0.592397
v 0.502918 -0.001541 0.658846
v 0.478192 -0.026334 0.665486
v 0.467850 -0.023249 0.602898
v 0.475450 0.005923 0.661530
v 0.490741 0.019698 0.612260
v 0.521158 -0.013120 0.633914
v 0.492302 -0.026568 0.600964
v 0.449671 -0.009468 0.616195
vn -0.4928 0.1068 0.8636
vn 0.0970 0.1660 0.9813
vn 0.1678 0.6157 0.7699
vn -0.5419 0.6239 0.5631
vn -0.2368 0.7379 -0.6319
vn -0.2243 0.9245 -0.3084
vn 0.2740 0.9607 -0.0455
vn 0.5056 0.6645 -0.5503
vn 0.9548 -0.0272 -0.2959
vn 0.8227 0.3237 0.4673
vn -0.0852 -0.2834 -0.9552
vn 0.5658 -0.2147 -0.7961
vn -0.8639 0.4664 -0.1901
vn -0.7184 0.0669 -0.6924
vt 0.677176 0.938019
s 0
usemtl Material
f 230/11/173 243/11/173 245/11/173 240/11/173
f 243/11/174 233/11/174 242/11/174 245/11/174
f 245/11/175 242/11/175 234/11/175 239/11/175
f 240/11/176 245/11/176 239/11/176 231/11/176
f 232/11/177 238/11/177 246/11/177 241/11/177
f 238/11/178 231/11/178 239/11/178 246/11/178
f 246/11/179 239/11/179 234/11/179 237/11/179
f 241/11/180 246/11/180 237/11/180 235/11/180
f 235/11/181 237/11/181 247/11/181 236/11/181
f 237/11/182 234/11/182 242/11/182 247/11/182
f 248/11/183 244/11/183 232/11/183 241/11/183
f 236/11/184 248/11/184 241/11/184 235/11/184
f 249/11/185 240/11/185 231/11/185 238/11/185
f 244/11/186 249/11/186 238/11/186 232/11/186
o Cube.011
v 0.455088 -0.020650 0.226677
v 0.464815 0.024981 0.206181
v 0.474384 0.002442 0.165395
v 0.504010 -0.021064 0.239829
v 0.508484 0.023353 0.220156
v 0.521323 0.003351 0.180370
v 0.519887 -0.019665 0.185890
v 0.463130 -0.032613 0.207878
v 0.524409 0.017525 0.197069
v 0.468001 0.015632 0.180752
v 0.511483 -0.030916 0.220256
v 0.480813 0.030916 0.217254
v 0.452668 0.003465 0.220585
v 0.497420 0.009144 0.162151
v 0.509470 0.002123 0.234035
v 0.482721 -0.024698 0.241218
v 0.471534 -0.021361 0.173511
v 0.479755 0.010197 0.236939
v 0.496297 0.025099 0.183639
v 0.529202 -0.010403 0.207064
v 0.497986 -0.024952 0.171419
v 0.451867 -0.006453 0.187896
vn -0.4928 0.1068 0.8636
vn 0.0970 0.1660 0.9813
vn 0.1678 0.6157 0.7699
vn -0.5419 0.6239 0.5631
vn -0.2368 0.7379 -0.6319
vn -0.2243 0.9245 -0.3084
vn 0.2740 0.9607 -0.0455
vn 0.5056 0.6645 -0.5503
vn 0.9548 -0.0272 -0.2959
vn 0.8227 0.3237 0.4673
vn 0.8072 -0.1846 0.5606
vn -0.0852 -0.2834 -0.9552
vn 0.5658 -0.2147 -0.7961
vn -0.9621 -0.2721 -0.0197
vn -0.8639 0.4664 -0.1901
vn -0.7184 0.0669 -0.6924
vt 0.677176 0.938019
s 0
usemtl Material
f 250/12/187 265/12/187 267/12/187 262/12/187
f 265/12/188 253/12/188 264/12/188 267/12/188
f 267/12/189 264/12/189 254/12/189 261/12/189
f 262/12/190 267/12/190 261/12/190 251/12/190
f 252/12/191 259/12/191 268/12/191 263/12/191
f 259/12/192 251/12/192 261/12/192 268/12/192
f 268/12/193 261/12/193 254/12/193 258/12/193
f 263/12/194 268/12/194 258/12/194 255/12/194
f 255/12/195 258/12/195 269/12/195 256/12/195
f 258/12/196 254/12/196 264/12/196 269/12/196
f 269/12/197 264/12/197 253/12/197 260/12/197
f 270/12/198 266/12/198 252/12/198 263/12/198
f 256/12/199 270/12/199 263/12/199 255/12/199
f 257/12/200 250/12/200 262/12/200 271/12/200
f 271/12/201 262/12/201 251/12/201 259/12/201
f 266/12/202 271/12/202 259/12/202 252/12/202
