# Blender 4.2.1 LTS
# www.blender.org
mtllib street_two.mtl
o Cube
v 0.352036 0.046425 0.070739
v 0.345699 -0.027729 0.076458
v 0.350734 0.045511 0.154368
v 0.353002 -0.033037 0.152395
v 0.273570 0.044036 0.068262
v 0.280582 -0.027729 0.076458
v 0.273123 0.042052 0.145911
v 0.273290 -0.027879 0.150626
v 0.274160 -0.034503 0.110663
v 0.313140 -0.034533 0.069655
v 0.352120 0.006476 0.069684
v 0.265976 0.002058 0.156487
v 0.354854 0.006786 0.155123
v 0.274160 0.006476 0.069684
v 0.314434 0.057594 0.158751
v 0.357284 0.051487 0.107461
v 0.270569 0.050191 0.111360
v 0.311451 0.050956 0.062451
v 0.352120 -0.034503 0.110663
v 0.315687 0.071389 0.113151
v 0.311625 0.004390 0.171780
v 0.252145 0.002184 0.114019
v 0.374904 0.003513 0.115005
v 0.313140 0.006476 0.054592
vn 0.2807 0.9128 -0.2967
vn -0.3213 0.9122 -0.2543
vn -0.4142 0.8762 0.2465
vn 0.3948 0.8911 0.2238
vn 0.2696 0.1465 0.9517
vn -0.3457 0.2649 0.9002
vn -0.8924 -0.4168 0.1732
vn -0.9249 0.3032 0.2293
vn -0.9440 0.1837 -0.2740
vn -0.8590 -0.3620 -0.3620
vn 0.8606 -0.3601 -0.3601
vn 0.9322 0.1639 -0.3227
vn 0.9215 0.2588 0.2897
vn 0.9207 -0.3126 0.2337
vn -0.3052 -0.2895 -0.9072
vn -0.2675 0.0680 -0.9612
vn 0.2859 0.1066 -0.9523
vn 0.3052 -0.2895 -0.9072
vt 0.677176 0.938019
s 0
usemtl Material
f 1/1/1 18/1/1 20/1/1 16/1/1
f 18/1/2 5/1/2 17/1/2 20/1/2
f 20/1/3 17/1/3 7/1/3 15/1/3
f 16/1/4 20/1/4 15/1/4 3/1/4
f 13/1/5 3/1/5 15/1/5 21/1/5
f 21/1/6 15/1/6 7/1/6 12/1/6
f 8/1/7 12/1/7 22/1/7 9/1/7
f 12/1/8 7/1/8 17/1/8 22/1/8
f 22/1/9 17/1/9 5/1/9 14/1/9
f 9/1/10 22/1/10 14/1/10 6/1/10
f 2/1/11 11/1/11 23/1/11 19/1/11
f 11/1/12 1/1/12 16/1/12 23/1/12
f 23/1/13 16/1/13 3/1/13 13/1/13
f 19/1/14 23/1/14 13/1/14 4/1/14
f 6/1/15 14/1/15 24/1/15 10/1/15
f 14/1/16 5/1/16 18/1/16 24/1/16
f 24/1/17 18/1/17 1/1/17 11/1/17
f 10/1/18 24/1/18 11/1/18 2/1/18
o Cube.001
v 0.754092 -0.017635 0.086704
v 0.739629 0.056718 0.120726
v 0.726785 0.019992 0.187770
v 0.673562 -0.018310 0.068572
v 0.667597 0.054065 0.100901
v 0.649361 0.021473 0.166535
v 0.651330 -0.016030 0.157453
v 0.742258 -0.037128 0.117850
v 0.643216 0.044568 0.139555
v 0.736147 0.041484 0.162339
v 0.662707 -0.034363 0.100938
v 0.712841 0.066388 0.103770
v 0.758440 0.021659 0.096461
v 0.689498 0.030913 0.194594
v 0.665061 0.019472 0.078370
v 0.708128 -0.024232 0.064883
v 0.730881 -0.018795 0.174365
v 0.713244 0.032628 0.071652
v 0.689886 0.056910 0.159536
v 0.634744 -0.000939 0.123604
v 0.687955 -0.024645 0.179545
v 0.761935 0.005499 0.149627
vn 0.4569 0.1068 -0.8831
vn -0.1373 0.1660 -0.9765
vn -0.1993 0.6157 -0.7623
vn 0.5183 0.6239 -0.5849
vn 0.2626 0.7379 0.6217
vn 0.2368 0.9245 0.2989
vn -0.2719 0.9607 0.0567
vn -0.4825 0.6645 0.5706
vn -0.9419 -0.0272 0.3349
vn -0.8412 0.3237 -0.4331
vn -0.8296 -0.1846 -0.5269
vn 0.1244 -0.2834 0.9509
vn -0.5326 -0.2147 0.8187
vn 0.9621 -0.2721 -0.0199
vn 0.8710 0.4664 0.1544
vn 0.7463 0.0669 0.6623
vt 0.677176 0.938019
s 0
usemtl Material
f 25/2/19 40/2/19 42/2/19 37/2/19
f 40/2/20 28/2/20 39/2/20 42/2/20
f 42/2/21 39/2/21 29/2/21 36/2/21
f 37/2/22 42/2/22 36/2/22 26/2/22
f 27/2/23 34/2/23 43/2/23 38/2/23
f 34/2/24 26/2/24 36/2/24 43/2/24
f 43/2/25 36/2/25 29/2/25 33/2/25
f 38/2/26 43/2/26 33/2/26 30/2/26
f 30/2/27 33/2/27 44/2/27 31/2/27
f 33/2/28 29/2/28 39/2/28 44/2/28
f 44/2/29 39/2/29 28/2/29 35/2/29
f 45/2/30 41/2/30 27/2/30 38/2/30
f 31/2/31 45/2/31 38/2/31 30/2/31
f 32/2/32 25/2/32 37/2/32 46/2/32
f 46/2/33 37/2/33 26/2/33 34/2/33
f 41/2/34 46/2/34 34/2/34 27/2/34
o Cube.002
v 0.501581 -0.007360 0.553749
v 0.560997 -0.021653 0.622417
v 0.500125 0.007143 0.617778
v 0.583771 0.014908 0.532953
v 0.526946 0.039961 0.538130
v 0.587989 0.034135 0.596683
v 0.534979 0.062628 0.597436
v 0.526734 0.055276 0.564444
v 0.508593 0.017390 0.540030
v 0.524657 -0.027066 0.551262
v 0.561057 0.057533 0.601863
v 0.529941 -0.009235 0.622272
v 0.555025 0.029589 0.532563
v 0.584657 0.000995 0.617867
v 0.559643 -0.039712 0.585641
v 0.509818 0.040661 0.616974
v 0.592713 0.024726 0.567994
v 0.573871 -0.016700 0.537568
v 0.496366 -0.001379 0.583143
v 0.591418 -0.015985 0.581251
v 0.546146 0.027010 0.625508
v 0.563502 0.057624 0.563588
v 0.500051 0.032887 0.573109
v 0.516766 -0.031881 0.593904
v 0.538761 -0.002260 0.529487
vn 0.9339 -0.2151 -0.2855
vn 0.9858 0.0161 0.1669
vn 0.6302 -0.6816 0.3718
vn -0.1791 0.0322 0.9833
vn 0.0870 -0.0367 0.9955
vn 0.4669 0.4158 0.7805
vn 0.0251 0.6236 0.7813
vn 0.0494 0.9932 -0.1052
vn 0.7077 0.7061 -0.0225
vn 0.5684 0.6403 -0.5167
vn 0.0383 0.7944 -0.6061
vn -0.6906 0.5953 -0.4106
vn -0.9675 0.0787 -0.2401
vn -0.9697 0.2111 0.1233
vn -0.6493 0.7605 0.0025
vn -0.7399 -0.6612 -0.1239
vn -0.6756 -0.5724 0.4647
vn -0.1940 0.1444 -0.9703
vn 0.1016 -0.0660 -0.9926
vn -0.4709 -0.3722 -0.7998
vt 0.677176 0.938019
s 0
usemtl Material
f 64/3/35 50/3/35 63/3/35 66/3/35
f 66/3/36 63/3/36 52/3/36 60/3/36
f 61/3/37 66/3/37 60/3/37 48/3/37
f 49/3/38 58/3/38 67/3/38 62/3/38
f 58/3/39 48/3/39 60/3/39 67/3/39
f 67/3/40 60/3/40 52/3/40 57/3/40
f 62/3/41 67/3/41 57/3/41 53/3/41
f 53/3/42 57/3/42 68/3/42 54/3/42
f 57/3/43 52/3/43 63/3/43 68/3/43
f 68/3/44 63/3/44 50/3/44 59/3/44
f 54/3/45 68/3/45 59/3/45 51/3/45
f 51/3/46 55/3/46 69/3/46 54/3/46
f 55/3/47 47/3/47 65/3/47 69/3/47
f 69/3/48 65/3/48 49/3/48 62/3/48
f 54/3/49 69/3/49 62/3/49 53/3/49
f 47/3/50 56/3/50 70/3/50 65/3/50
f 65/3/51 70/3/51 58/3/51 49/3/51
f 51/3/52 59/3/52 71/3/52 55/3/52
f 59/3/53 50/3/53 64/3/53 71/3/53
f 55/3/54 71/3/54 56/3/54 47/3/54
o Cube.003
v 0.075366 -0.001521 0.297991
v 0.134782 -0.015814 0.366659
v 0.073910 0.012982 0.362020
v 0.157555 0.020747 0.277195
v 0.100731 0.045800 0.282372
v 0.161774 0.039974 0.340925
v 0.108763 0.068467 0.341678
v 0.100518 0.061115 0.308686
v 0.082378 0.023229 0.284272
v 0.098441 -0.021227 0.295504
v 0.134842 0.063372 0.346105
v 0.103726 -0.003396 0.366514
v 0.128809 0.035428 0.276805
v 0.158441 0.006834 0.362109
v 0.133428 -0.033873 0.329883
v 0.083603 0.046500 0.361216
v 0.166497 0.030565 0.312236
v 0.147656 -0.010860 0.281810
v 0.070150 0.004460 0.327385
v 0.165202 -0.010145 0.325493
v 0.119931 0.032849 0.369750
v 0.137287 0.063463 0.307830
v 0.073835 0.038726 0.317351
v 0.090551 -0.026042 0.338146
v 0.112545 0.003579 0.273729
vn 0.9339 -0.2151 -0.2855
vn 0.9858 0.0161 0.1669
vn 0.6302 -0.6816 0.3718
vn -0.1791 0.0322 0.9833
vn 0.0870 -0.0367 0.9955
vn 0.4669 0.4158 0.7805
vn 0.0251 0.6236 0.7813
vn 0.0494 0.9932 -0.1052
vn 0.7077 0.7061 -0.0225
vn 0.5684 0.6403 -0.5167
vn 0.0383 0.7944 -0.6061
vn -0.6906 0.5953 -0.4106
vn -0.9675 0.0787 -0.2401
vn -0.9697 0.2111 0.1233
vn -0.6493 0.7605 0.0025
vn -0.7399 -0.6612 -0.1239
vn -0.6756 -0.5724 0.4647
vn -0.1940 0.1444 -0.9703
vn 0.1016 -0.0660 -0.9926
vn -0.4709 -0.3722 -0.7998
vt 0.677176 0.938019
s 0
usemtl Material
f 89/4/55 75/4/55 88/4/55 91/4/55
f 91/4/56 88/4/56 77/4/56 85/4/56
f 86/4/57 91/4/57 85/4/57 73/4/57
f 74/4/58 83/4/58 92/4/58 87/4/58
f 83/4/59 73/4/59 85/4/59 92/4/59
f 92/4/60 85/4/60 77/4/60 82/4/60
f 87/4/61 92/4/61 82/4/61 78/4/61
f 78/4/62 82/4/62 93/4/62 79/4/62
f 82/4/63 77/4/63 88/4/63 93/4/63
f 93/4/64 88/4/64 75/4/64 84/4/64
f 79/4/65 93/4/65 84/4/65 76/4/65
f 76/4/66 80/4/66 94/4/66 79/4/66
f 80/4/67 72/4/67 90/4/67 94/4/67
f 94/4/68 90/4/68 74/4/68 87/4/68
f 79/4/69 94/4/69 87/4/69 78/4/69
f 72/4/70 81/4/70 95/4/70 90/4/70
f 90/4/71 95/4/71 83/4/71 74/4/71
f 76/4/72 84/4/72 96/4/72 80/4/72
f 84/4/73 75/4/73 89/4/73 96/4/73
f 80/4/74 96/4/74 81/4/74 72/4/74
o Cube.004
v 0.694133 -0.020948 0.364021
v 0.682520 0.038758 0.391340
v 0.672206 0.009267 0.445176
v 0.629469 -0.021490 0.349461
v 0.624679 0.036627 0.375421
v 0.610035 0.010456 0.428125
v 0.611616 -0.019659 0.420832
v 0.605101 0.029001 0.406460
v 0.679724 0.026524 0.424756
v 0.661009 0.046522 0.377725
v 0.697625 0.010605 0.371856
v 0.642265 0.018036 0.450656
v 0.622642 0.008849 0.357329
v 0.657224 -0.026245 0.346499
v 0.675495 -0.021879 0.434412
v 0.661332 0.019414 0.351934
v 0.642576 0.038912 0.422504
v 0.598298 -0.007541 0.393652
v 0.641026 -0.026577 0.438571
v 0.700431 -0.002372 0.414548
vn 0.4569 0.1068 -0.8831
vn -0.1373 0.1660 -0.9765
vn -0.1993 0.6157 -0.7623
vn 0.5183 0.6239 -0.5849
vn 0.2626 0.7379 0.6217
vn 0.2368 0.9245 0.2989
vn -0.2719 0.9607 0.0567
vn -0.4825 0.6645 0.5706
vn -0.9419 -0.0272 0.3349
vn -0.8412 0.3237 -0.4331
vn 0.1244 -0.2834 0.9509
vn -0.5326 -0.2147 0.8187
vn 0.8710 0.4664 0.1544
vn 0.7463 0.0669 0.6623
vt 0.677176 0.938019
s 0
usemtl Material
f 97/5/75 110/5/75 112/5/75 107/5/75
f 110/5/76 100/5/76 109/5/76 112/5/76
f 112/5/77 109/5/77 101/5/77 106/5/77
f 107/5/78 112/5/78 106/5/78 98/5/78
f 99/5/79 105/5/79 113/5/79 108/5/79
f 105/5/80 98/5/80 106/5/80 113/5/80
f 113/5/81 106/5/81 101/5/81 104/5/81
f 108/5/82 113/5/82 104/5/82 102/5/82
f 102/5/83 104/5/83 114/5/83 103/5/83
f 104/5/84 101/5/84 109/5/84 114/5/84
f 115/5/85 111/5/85 99/5/85 108/5/85
f 103/5/86 115/5/86 108/5/86 102/5/86
f 116/5/87 107/5/87 98/5/87 105/5/87
f 111/5/88 116/5/88 105/5/88 99/5/88
o Cube.005
v 0.438995 -0.011910 0.665168
v 0.424393 0.063160 0.699518
v 0.411425 0.026080 0.767209
v 0.357689 -0.012591 0.646861
v 0.351667 0.060481 0.679502
v 0.333255 0.027575 0.745769
v 0.335242 -0.010289 0.736599
v 0.427048 -0.031591 0.696614
v 0.327051 0.050893 0.718528
v 0.420877 0.047779 0.741533
v 0.346729 -0.028799 0.679540
v 0.397347 0.072923 0.682399
v 0.443385 0.027763 0.675019
v 0.373778 0.037106 0.774099
v 0.349106 0.025555 0.656754
v 0.392588 -0.018570 0.643137
v 0.415561 -0.013081 0.753674
v 0.397753 0.038838 0.649970
v 0.374170 0.063354 0.738702
v 0.318497 0.004947 0.702424
v 0.372221 -0.018988 0.758904
v 0.446914 0.011447 0.728698
vn 0.4569 0.1068 -0.8831
vn -0.1373 0.1660 -0.9765
vn -0.1993 0.6157 -0.7623
vn 0.5183 0.6239 -0.5849
vn 0.2626 0.7379 0.6217
vn 0.2368 0.9245 0.2989
vn -0.2719 0.9607 0.0567
vn -0.4825 0.6645 0.5706
vn -0.9419 -0.0272 0.3349
vn -0.8412 0.3237 -0.4331
vn -0.8296 -0.1846 -0.5269
vn 0.1244 -0.2834 0.9509
vn -0.5326 -0.2147 0.8187
vn 0.9621 -0.2721 -0.0199
vn 0.8710 0.4664 0.1544
vn 0.7463 0.0669 0.6623
vt 0.677176 0.938019
s 0
usemtl Material
f 117/6/89 132/6/89 134/6/89 129/6/89
f 132/6/90 120/6/90 131/6/90 134/6/90
f 134/6/91 131/6/91 121/6/91 128/6/91
f 129/6/92 134/6/92 128/6/92 118/6/92
f 119/6/93 126/6/93 135/6/93 130/6/93
f 126/6/94 118/6/94 128/6/94 135/6/94
f 135/6/95 128/6/95 121/6/95 125/6/95
f 130/6/96 135/6/96 125/6/96 122/6/96
f 122/6/97 125/6/97 136/6/97 123/6/97
f 125/6/98 121/6/98 131/6/98 136/6/98
f 136/6/99 131/6/99 120/6/99 127/6/99
f 137/6/100 133/6/100 119/6/100 130/6/100
f 123/6/101 137/6/101 130/6/101 122/6/101
f 124/6/102 117/6/102 129/6/102 138/6/102
f 138/6/103 129/6/103 118/6/103 126/6/103
f 133/6/104 138/6/104 126/6/104 119/6/104
o Cube.006
v 0.205034 -0.019456 0.673990
v 0.189128 0.062316 0.711407
v 0.175002 0.021926 0.785140
v 0.116470 -0.020198 0.654049
v 0.109909 0.059398 0.689604
v 0.089854 0.023554 0.761786
v 0.092018 -0.017690 0.751798
v 0.192019 -0.040893 0.708244
v 0.083096 0.048954 0.732114
v 0.185298 0.045562 0.757172
v 0.104531 -0.037853 0.689645
v 0.159667 0.072951 0.692759
v 0.209816 0.023759 0.684721
v 0.133995 0.033936 0.792646
v 0.107120 0.021353 0.664825
v 0.154483 -0.026710 0.649992
v 0.179507 -0.020731 0.770397
v 0.160110 0.035823 0.657436
v 0.134422 0.062527 0.754089
v 0.073778 -0.001094 0.714572
v 0.132298 -0.027165 0.776094
v 0.213659 0.005986 0.743191
vn 0.4569 0.1068 -0.8831
vn -0.1373 0.1660 -0.9765
vn -0.1993 0.6157 -0.7623
vn 0.5183 0.6239 -0.5849
vn 0.2626 0.7379 0.6217
vn 0.2368 0.9245 0.2989
vn -0.2719 0.9607 0.0567
vn -0.4825 0.6645 0.5706
vn -0.9419 -0.0272 0.3349
vn -0.8412 0.3237 -0.4331
vn -0.8296 -0.1846 -0.5269
vn 0.1244 -0.2834 0.9509
vn -0.5326 -0.2147 0.8187
vn 0.9621 -0.2721 -0.0199
vn 0.8710 0.4664 0.1544
vn 0.7463 0.0669 0.6623
vt 0.677176 0.938019
s 0
usemtl Material
f 139/7/105 154/7/105 156/7/105 151/7/105
f 154/7/106 142/7/106 153/7/106 156/7/106
f 156/7/107 153/7/107 143/7/107 150/7/107
f 151/7/108 156/7/108 150/7/108 140/7/108
f 141/7/109 148/7/109 157/7/109 152/7/109
f 148/7/110 140/7/110 150/7/110 157/7/110
f 157/7/111 150/7/111 143/7/111 147/7/111
f 152/7/112 157/7/112 147/7/112 144/7/112
f 144/7/113 147/7/113 158/7/113 145/7/113
f 147/7/114 143/7/114 153/7/114 158/7/114
f 158/7/115 153/7/115 142/7/115 149/7/115
f 159/7/116 155/7/116 141/7/116 152/7/116
f 145/7/117 159/7/117 152/7/117 144/7/117
f 146/7/118 139/7/118 151/7/118 160/7/118
f 160/7/119 151/7/119 140/7/119 148/7/119
f 155/7/120 160/7/120 148/7/120 141/7/120
o Cube.007
v 0.318571 -0.005837 0.249948
v 0.304108 0.068516 0.283969
v 0.291264 0.031790 0.351013
v 0.238041 -0.006512 0.231815
v 0.232076 0.065862 0.264144
v 0.213840 0.033270 0.329778
v 0.215808 -0.004232 0.320697
v 0.306737 -0.025330 0.281093
v 0.207695 0.056366 0.302798
v 0.300626 0.053281 0.325583
v 0.227186 -0.022565 0.264182
v 0.277320 0.078185 0.267014
v 0.322919 0.033456 0.259705
v 0.253977 0.042710 0.357838
v 0.229540 0.031269 0.241614
v 0.272606 -0.012434 0.228126
v 0.295360 -0.006997 0.337608
v 0.277722 0.044426 0.234895
v 0.254365 0.068708 0.322779
v 0.199223 0.010858 0.286848
v 0.252434 -0.012847 0.342788
v 0.326414 0.017296 0.312870
vn 0.4569 0.1068 -0.8831
vn -0.1373 0.1660 -0.9765
vn -0.1993 0.6157 -0.7623
vn 0.5183 0.6239 -0.5849
vn 0.2626 0.7379 0.6217
vn 0.2368 0.9245 0.2989
vn -0.2719 0.9607 0.0567
vn -0.4825 0.6645 0.5706
vn -0.9419 -0.0272 0.3349
vn -0.8412 0.3237 -0.4331
vn -0.8296 -0.1846 -0.5269
vn 0.1244 -0.2834 0.9509
vn -0.5326 -0.2147 0.8187
vn 0.9621 -0.2721 -0.0199
vn 0.8710 0.4664 0.1544
vn 0.7463 0.0669 0.6623
vt 0.677176 0.938019
s 0
usemtl Material
f 161/8/121 176/8/121 178/8/121 173/8/121
f 176/8/122 164/8/122 175/8/122 178/8/122
f 178/8/123 175/8/123 165/8/123 172/8/123
f 173/8/124 178/8/124 172/8/124 162/8/124
f 163/8/125 170/8/125 179/8/125 174/8/125
f 170/8/126 162/8/126 172/8/126 179/8/126
f 179/8/127 172/8/127 165/8/127 169/8/127
f 174/8/128 179/8/128 169/8/128 166/8/128
f 166/8/129 169/8/129 180/8/129 167/8/129
f 169/8/130 165/8/130 175/8/130 180/8/130
f 180/8/131 175/8/131 164/8/131 171/8/131
f 181/8/132 177/8/132 163/8/132 174/8/132
f 167/8/133 181/8/133 174/8/133 166/8/133
f 168/8/134 161/8/134 173/8/134 182/8/134
f 182/8/135 173/8/135 162/8/135 170/8/135
f 177/8/136 182/8/136 170/8/136 163/8/136
o Cube.008
v 0.151600 -0.001016 0.517334
v 0.162798 0.051513 0.493739
v 0.173813 0.025567 0.446786
v 0.207918 -0.001493 0.532474
v 0.213068 0.049638 0.509827
v 0.227848 0.026613 0.464026
v 0.226195 0.000117 0.470380
v 0.160859 -0.014788 0.495693
v 0.231402 0.042929 0.483250
v 0.166466 0.040750 0.464465
v 0.216522 -0.012835 0.509942
v 0.181214 0.058345 0.506486
v 0.148814 0.026744 0.510320
v 0.200332 0.033282 0.443053
v 0.214204 0.025199 0.525804
v 0.183412 -0.005677 0.534073
v 0.170532 -0.001836 0.456130
v 0.179997 0.034494 0.529147
v 0.199039 0.051649 0.467789
v 0.236919 0.010779 0.494755
v 0.200984 -0.005969 0.453721
v 0.147893 0.015327 0.472690
vn -0.4928 0.1068 0.8636
vn 0.0970 0.1660 0.9813
vn 0.1678 0.6157 0.7699
vn -0.5419 0.6239 0.5631
vn -0.2368 0.7379 -0.6319
vn -0.2243 0.9245 -0.3084
vn 0.2740 0.9607 -0.0455
vn 0.5056 0.6645 -0.5503
vn 0.9548 -0.0272 -0.2959
vn 0.8227 0.3237 0.4673
vn 0.8072 -0.1846 0.5606
vn -0.0852 -0.2834 -0.9552
vn 0.5658 -0.2147 -0.7961
vn -0.9621 -0.2721 -0.0197
vn -0.8639 0.4664 -0.1901
vn -0.7184 0.0669 -0.6924
vt 0.677176 0.938019
s 0
usemtl Material
f 183/9/137 198/9/137 200/9/137 195/9/137
f 198/9/138 186/9/138 197/9/138 200/9/138
f 200/9/139 197/9/139 187/9/139 194/9/139
f 195/9/140 200/9/140 194/9/140 184/9/140
f 185/9/141 192/9/141 201/9/141 196/9/141
f 192/9/142 184/9/142 194/9/142 201/9/142
f 201/9/143 194/9/143 187/9/143 191/9/143
f 196/9/144 201/9/144 191/9/144 188/9/144
f 188/9/145 191/9/145 202/9/145 189/9/145
f 191/9/146 187/9/146 197/9/146 202/9/146
f 202/9/147 197/9/147 186/9/147 193/9/147
f 203/9/148 199/9/148 185/9/148 196/9/148
f 189/9/149 203/9/149 196/9/149 188/9/149
f 190/9/150 183/9/150 195/9/150 204/9/150
f 204/9/151 195/9/151 184/9/151 192/9/151
f 199/9/152 204/9/152 192/9/152 185/9/152
o Cube.009
v 0.515344 0.003612 0.360135
v 0.475399 -0.006486 0.309936
v 0.518233 0.013858 0.314980
v 0.456723 0.019344 0.372426
v 0.496985 0.037044 0.370423
v 0.455598 0.032928 0.327317
v 0.493039 0.053057 0.328326
v 0.497900 0.047863 0.351854
v 0.509996 0.021097 0.369615
v 0.498983 -0.010310 0.361220
v 0.474759 0.049458 0.324443
v 0.497317 0.002287 0.310941
v 0.477003 0.029716 0.373536
v 0.458566 0.009515 0.312460
v 0.475286 -0.019244 0.335935
v 0.511367 0.037538 0.315266
v 0.451429 0.026280 0.347431
v 0.463845 -0.002986 0.369456
v 0.519880 0.007838 0.339538
v 0.452729 -0.002481 0.338111
v 0.485972 0.027894 0.308185
v 0.471921 0.049522 0.351390
v 0.516987 0.032046 0.346513
v 0.505792 -0.013712 0.331348
v 0.488394 0.007215 0.376180
vn -0.9449 -0.2151 0.2468
vn -0.9781 0.0161 -0.2073
vn -0.6144 -0.6816 -0.3974
vn 0.2194 0.0322 -0.9751
vn -0.0460 -0.0367 -0.9983
vn -0.4344 0.4158 -0.7990
vn 0.0071 0.6236 -0.7817
vn -0.0537 0.9932 0.1031
vn -0.7081 0.7061 -0.0066
vn -0.5892 0.6403 0.4929
vn -0.0632 0.7944 0.6040
vn 0.6732 0.5953 0.4387
vn 0.9568 0.0787 0.2797
vn 0.9739 0.2111 -0.0833
vn 0.6489 0.7605 0.0242
vn 0.7342 -0.6612 0.1543
vn 0.6941 -0.5724 -0.4366
vn 0.1539 0.1444 0.9775
vn -0.1423 -0.0660 0.9876
vn 0.4376 -0.3722 0.8185
vt 0.677176 0.938019
s 0
usemtl Material
f 222/10/153 208/10/153 221/10/153 224/10/153
f 224/10/154 221/10/154 210/10/154 218/10/154
f 219/10/155 224/10/155 218/10/155 206/10/155
f 207/10/156 216/10/156 225/10/156 220/10/156
f 216/10/157 206/10/157 218/10/157 225/10/157
f 225/10/158 218/10/158 210/10/158 215/10/158
f 220/10/159 225/10/159 215/10/159 211/10/159
f 211/10/160 215/10/160 226/10/160 212/10/160
f 215/10/161 210/10/161 221/10/161 226/10/161
f 226/10/162 221/10/162 208/10/162 217/10/162
f 212/10/163 226/10/163 217/10/163 209/10/163
f 209/10/164 213/10/164 227/10/164 212/10/164
f 213/10/165 205/10/165 223/10/165 227/10/165
f 227/10/166 223/10/166 207/10/166 220/10/166
f 212/10/167 227/10/167 220/10/167 211/10/167
f 205/10/168 214/10/168 228/10/168 223/10/168
f 223/10/169 228/10/169 216/10/169 207/10/169
f 209/10/170 217/10/170 229/10/170 213/10/170
f 217/10/171 208/10/171 222/10/171 229/10/171
f 213/10/172 229/10/172 214/10/172 205/10/172
o Cube.010
v 0.332038 -0.002907 0.511736
v 0.341030 0.039274 0.492789
v 0.349875 0.018439 0.455087
v 0.377261 -0.003290 0.523893
v 0.381397 0.037768 0.505708
v 0.393265 0.019279 0.468930
v 0.391938 -0.001997 0.474032
v 0.396119 0.032381 0.484367
v 0.343975 0.030631 0.469283
v 0.355818 0.044759 0.503025
v 0.329801 0.019384 0.506104
v 0.371170 0.024634 0.452088
v 0.382309 0.018144 0.518538
v 0.357583 -0.006650 0.525177
v 0.347241 -0.003565 0.462589
v 0.354841 0.025607 0.521222
v 0.370132 0.039383 0.471952
v 0.400549 0.006564 0.493605
v 0.371693 -0.006884 0.460655
v 0.329061 0.010217 0.475887
vn -0.4928 0.1068 0.8636
vn 0.0970 0.1660 0.9813
vn 0.1678 0.6157 0.7699
vn -0.5419 0.6239 0.5631
vn -0.2368 0.7379 -0.6319
vn -0.2243 0.9245 -0.3084
vn 0.2740 0.9607 -0.0455
vn 0.5056 0.6645 -0.5503
vn 0.9548 -0.0272 -0.2959
vn 0.8227 0.3237 0.4673
vn -0.0852 -0.2834 -0.9552
vn 0.5658 -0.2147 -0.7961
vn -0.8639 0.4664 -0.1901
vn -0.7184 0.0669 -0.6924
vt 0.677176 0.938019
s 0
usemtl Material
f 230/11/173 243/11/173 245/11/173 240/11/173
f 243/11/174 233/11/174 242/11/174 245/11/174
f 245/11/175 242/11/175 234/11/175 239/11/175
f 240/11/176 245/11/176 239/11/176 231/11/176
f 232/11/177 238/11/177 246/11/177 241/11/177
f 238/11/178 231/11/178 239/11/178 246/11/178
f 246/11/179 239/11/179 234/11/179 237/11/179
f 241/11/180 246/11/180 237/11/180 235/11/180
f 235/11/181 237/11/181 247/11/181 236/11/181
f 237/11/182 234/11/182 242/11/182 247/11/182
f 248/11/183 244/11/183 232/11/183 241/11/183
f 236/11/184 248/11/184 241/11/184 235/11/184
f 249/11/185 240/11/185 231/11/185 238/11/185
f 244/11/186 249/11/186 238/11/186 232/11/186
o Cube.011
v 0.481491 -0.020650 0.181414
v 0.491219 0.024981 0.160917
v 0.500787 0.002442 0.120131
v 0.530413 -0.021064 0.194566
v 0.534887 0.023353 0.174892
v 0.547726 0.003351 0.135107
v 0.546290 -0.019665 0.140626
v 0.489534 -0.032613 0.162614
v 0.550813 0.017525 0.151806
v 0.494405 0.015632 0.135488
v 0.537887 -0.030916 0.174993
v 0.507217 0.030916 0.171991
v 0.479072 0.003465 0.175321
v 0.523824 0.009144 0.116888
v 0.535873 0.002123 0.188772
v 0.509125 -0.024698 0.195955
v 0.497937 -0.021361 0.128248
v 0.506159 0.010197 0.191675
v 0.522701 0.025099 0.138376
v 0.555606 -0.010403 0.161800
v 0.524390 -0.024952 0.126155
v 0.478271 -0.006453 0.142632
vn -0.4928 0.1068 0.8636
vn 0.0970 0.1660 0.9813
vn 0.1678 0.6157 0.7699
vn -0.5419 0.6239 0.5631
vn -0.2368 0.7379 -0.6319
vn -0.2243 0.9245 -0.3084
vn 0.2740 0.9607 -0.0455
vn 0.5056 0.6645 -0.5503
vn 0.9548 -0.0272 -0.2959
vn 0.8227 0.3237 0.4673
vn 0.8072 -0.1846 0.5606
vn -0.0852 -0.2834 -0.9552
vn 0.5658 -0.2147 -0.7961
vn -0.9621 -0.2721 -0.0197
vn -0.8639 0.4664 -0.1901
vn -0.7184 0.0669 -0.6924
vt 0.677176 0.938019
s 0
usemtl Material
f 250/12/187 265/12/187 267/12/187 262/12/187
f 265/12/188 253/12/188 264/12/188 267/12/188
f 267/12/189 264/12/189 254/12/189 261/12/189
f 262/12/190 267/12/190 261/12/190 251/12/190
f 252/12/191 259/12/191 268/12/191 263/12/191
f 259/12/192 251/12/192 261/12/192 268/12/192
f 268/12/193 261/12/193 254/12/193 258/12/193
f 263/12/194 268/12/194 258/12/194 255/12/194
f 255/12/195 258/12/195 269/12/195 256/12/195
f 258/12/196 254/12/196 264/12/196 269/12/196
f 269/12/197 264/12/197 253/12/197 260/12/197
f 270/12/198 266/12/198 252/12/198 263/12/198
f 256/12/199 270/12/199 263/12/199 255/12/199
f 257/12/200 250/12/200 262/12/200 271/12/200
f 271/12/201 262/12/201 251/12/201 259/12/201
f 266/12/202 271/12/202 259/12/202 252/12/202
