# Blender 4.2.1 LTS
# www.blender.org
mtllib tree02.mtl
o Cube
v 1.199696 6.389557 -0.758600
v 1.000000 -0.069144 -1.000000
v 1.199696 6.389557 0.740290
v 1.000000 -0.069144 1.000000
v -0.299194 6.389557 -0.758600
v -1.000000 -0.069144 -1.000000
v -0.299194 6.389557 0.740290
v -1.000000 -0.069144 1.000000
v -1.294862 -0.069144 -0.056704
v 1.446177 6.389557 -0.077150
v -0.520176 6.389557 -0.051652
v 1.328884 -0.069144 -0.090727
v -0.136090 -0.069144 -1.487656
v 0.492748 6.389557 0.969772
v 0.056704 -0.069144 1.306203
v 0.348259 6.389557 -1.124072
v 0.000000 -0.069144 0.000000
v 0.710097 16.213316 0.537513
v 0.723315 11.662054 1.271965
v 0.266326 11.662054 1.139543
v 1.273489 11.662054 0.667841
v 1.131258 11.662054 1.139543
v 0.138809 11.662054 0.682555
v 0.266326 11.662054 0.274611
v 0.639938 11.662054 0.063717
v 1.131258 11.662054 0.274611
v 0.102328 18.852051 0.296673
v 0.479326 16.213316 0.470642
v 0.987924 16.213316 0.232442
v 0.916100 16.213316 0.470642
v 0.414933 16.213316 0.239872
v 0.479326 16.213316 0.033869
v 0.667993 16.213316 -0.072629
v 0.916100 16.213316 0.033869
v -0.172077 7.574702 -0.526356
v -0.004672 18.852051 0.265668
v 0.231146 18.852051 0.155223
v 0.197844 18.852051 0.265668
v -0.034530 18.852051 0.158668
v -0.004672 18.852051 0.063151
v 0.082806 18.852051 0.013772
v 0.197844 18.852051 0.063151
v 0.096586 18.852051 0.164410
v -0.372051 7.574702 0.113382
v 1.407360 7.574702 0.090308
v 1.184313 7.574702 -0.526356
v 1.184313 7.574702 0.830033
v -0.172077 7.574702 0.830033
v 0.413822 7.574702 -0.857082
v 0.544574 7.574702 1.037698
v -0.602307 10.946675 -4.167698
v -0.684216 10.183010 -4.317348
v -0.267022 10.183010 -4.552844
v -0.224775 10.946675 -4.380806
v -2.734156 16.064842 -6.032753
v -2.768868 15.741214 -6.096171
v -2.592068 15.741214 -6.195971
v -2.574164 16.064842 -6.123064
v 1.090539 12.523395 1.012952
v 1.219445 12.523395 0.585440
v 1.090539 12.523395 0.229050
v 0.645247 12.523395 0.037913
v 0.306637 12.523395 0.229050
v 0.191066 12.523395 0.598776
v 0.720813 12.523395 1.132968
v 0.306637 12.523395 1.012952
v -0.363802 14.907166 5.275675
v -0.608252 14.907166 5.204841
v -0.586689 15.367910 5.137125
v -0.365140 15.367910 5.201324
v 1.031627 15.516784 0.299076
v 0.663699 15.516784 -0.051762
v 0.446728 15.516784 0.070712
v 0.372674 15.516784 0.307621
v 0.712120 15.516784 0.649915
v 0.949028 15.516784 0.573012
v 0.949028 15.516784 0.070712
v 0.446728 15.516784 0.573012
v 3.643295 17.362682 0.272852
v 3.620057 17.733044 0.237421
v 3.581867 17.733044 0.364078
v 3.599375 17.362682 0.418510
vn -0.9599 0.0827 0.2679
vn -0.2777 0.0687 0.9582
vn -0.9482 0.1140 -0.2964
vn -0.0000 -1.0000 -0.0000
vn 0.9573 -0.0180 0.2886
vn 0.3943 0.0221 -0.9187
vn 0.9403 -0.0164 -0.3401
vn -0.9569 0.1146 0.2670
vn 0.9574 -0.0094 0.2887
vn -0.9423 0.1588 -0.2946
vn -0.4898 0.0856 -0.8676
vn 0.3086 0.0287 0.9508
vn 0.9375 0.0786 -0.3391
vn 0.9400 0.0265 -0.3400
vn -0.4914 -0.0231 -0.8706
vn -0.0422 0.1433 0.9888
vn 0.3943 -0.0299 -0.9185
vn -0.4797 0.2180 -0.8499
vn 0.3080 -0.0679 0.9490
vn 0.3878 0.1821 -0.9036
vn -0.2781 -0.0428 0.9596
vn 0.9212 0.2723 0.2778
vn 0.3917 0.1168 -0.9126
vn -0.9517 -0.1539 0.2656
vn 0.3050 0.1560 0.9395
vn -0.9541 0.0289 -0.2982
vn -0.2751 0.1524 0.9493
vn 0.3051 0.1526 0.9400
vn -0.9598 0.0843 0.2678
vn -0.0000 1.0000 -0.0000
vn -0.4900 -0.0802 -0.8680
vn 0.9102 0.2514 -0.3292
vn -0.9407 -0.1693 -0.2940
vn -0.2782 0.0236 0.9602
vn 0.9819 -0.0117 -0.1891
vn 0.4358 0.4628 0.7720
vn 0.3470 0.7082 0.6148
vn -0.3714 -0.6550 -0.6580
vn -0.9811 0.0698 0.1806
vn -0.4461 -0.4202 -0.7902
vn 0.7354 0.1100 -0.6687
vn -0.7294 -0.0554 0.6818
vn 0.1558 0.8286 -0.5377
vn 0.9538 0.0874 0.2876
vn -0.1715 -0.7876 0.5918
vn -0.9753 0.0133 -0.2204
vn 0.9720 0.0402 0.2314
vn -0.4942 0.8565 -0.1490
vn 0.0548 -0.0917 -0.9943
vn 0.5697 -0.8037 0.1718
vt 0.927854 0.574409
s 0
usemtl Material
f 44/1/1 48/1/1 20/1/1 23/1/1
f 15/1/2 14/1/2 7/1/2 8/1/2
f 9/1/3 11/1/3 5/1/3 6/1/3
f 17/1/4 12/1/4 4/1/4 15/1/4
f 12/1/5 10/1/5 3/1/5 4/1/5
f 13/1/6 16/1/6 1/1/6 2/1/6
f 2/1/7 1/1/7 10/1/7 12/1/7
f 13/1/4 2/1/4 12/1/4 17/1/4
f 8/1/8 7/1/8 11/1/8 9/1/8
f 47/1/9 45/1/9 21/1/9 22/1/9
f 35/1/10 44/1/10 23/1/10 24/1/10
f 6/1/4 13/1/4 17/1/4 9/1/4
f 6/1/11 5/1/11 16/1/11 13/1/11
f 9/1/4 17/1/4 15/1/4 8/1/4
f 4/1/12 3/1/12 14/1/12 15/1/12
f 45/1/13 46/1/13 26/1/13 21/1/13
f 71/1/14 77/1/14 34/1/14 29/1/14
f 72/1/15 73/1/15 32/1/15 33/1/15
f 30/1/16 76/1/16 82/1/16 81/1/16
f 77/1/17 72/1/17 33/1/17 34/1/17
f 49/1/18 35/1/18 24/1/18 25/1/18
f 50/1/19 47/1/19 22/1/19 19/1/19
f 46/1/20 49/1/20 25/1/20 26/1/20
f 48/1/21 50/1/21 19/1/21 20/1/21
f 30/1/22 29/1/22 37/1/22 38/1/22
f 34/1/23 33/1/23 41/1/23 42/1/23
f 31/1/24 28/1/24 36/1/24 39/1/24
f 18/1/25 30/1/25 38/1/25 27/1/25
f 73/1/26 74/1/26 31/1/26 32/1/26
f 78/1/27 75/1/27 18/1/27 28/1/27
f 75/1/28 76/1/28 30/1/28 18/1/28
f 74/1/29 78/1/29 28/1/29 31/1/29
f 43/1/30 39/1/30 36/1/30 27/1/30
f 41/1/30 40/1/30 39/1/30 43/1/30
f 42/1/30 41/1/30 43/1/30 37/1/30
f 37/1/30 43/1/30 27/1/30 38/1/30
f 33/1/31 32/1/31 40/1/31 41/1/31
f 29/1/32 34/1/32 42/1/32 37/1/32
f 32/1/33 31/1/33 39/1/33 40/1/33
f 28/1/34 18/1/34 27/1/34 36/1/34
f 7/1/21 14/1/21 50/1/21 48/1/21
f 1/1/20 16/1/20 49/1/20 46/1/20
f 14/1/19 3/1/19 47/1/19 50/1/19
f 49/1/35 16/1/35 53/1/35 54/1/35
f 10/1/13 1/1/13 46/1/13 45/1/13
f 5/1/10 11/1/10 44/1/10 35/1/10
f 3/1/9 10/1/9 45/1/9 47/1/9
f 11/1/1 7/1/1 48/1/1 44/1/1
f 51/1/36 54/1/36 58/1/36 55/1/36
f 35/1/37 49/1/37 54/1/37 51/1/37
f 16/1/38 5/1/38 52/1/38 53/1/38
f 5/1/39 35/1/39 51/1/39 52/1/39
f 57/1/18 56/1/18 55/1/18 58/1/18
f 53/1/40 52/1/40 56/1/40 57/1/40
f 54/1/41 53/1/41 57/1/41 58/1/41
f 52/1/42 51/1/42 55/1/42 56/1/42
f 23/1/29 20/1/29 66/1/29 64/1/29
f 19/1/28 22/1/28 59/1/28 65/1/28
f 65/1/43 66/1/43 69/1/43 70/1/43
f 24/1/26 23/1/26 64/1/26 63/1/26
f 26/1/17 25/1/17 62/1/17 61/1/17
f 22/1/44 21/1/44 60/1/44 59/1/44
f 25/1/15 24/1/15 63/1/15 62/1/15
f 21/1/14 26/1/14 61/1/14 60/1/14
f 68/1/27 67/1/27 70/1/27 69/1/27
f 20/1/45 19/1/45 67/1/45 68/1/45
f 66/1/46 20/1/46 68/1/46 69/1/46
f 19/1/47 65/1/47 70/1/47 67/1/47
f 64/1/29 66/1/29 78/1/29 74/1/29
f 65/1/28 59/1/28 76/1/28 75/1/28
f 66/1/27 65/1/27 75/1/27 78/1/27
f 63/1/26 64/1/26 74/1/26 73/1/26
f 61/1/17 62/1/17 72/1/17 77/1/17
f 59/1/44 60/1/44 71/1/44 76/1/44
f 62/1/15 63/1/15 73/1/15 72/1/15
f 60/1/14 61/1/14 77/1/14 71/1/14
f 82/1/44 79/1/44 80/1/44 81/1/44
f 29/1/48 30/1/48 81/1/48 80/1/48
f 71/1/49 29/1/49 80/1/49 79/1/49
f 76/1/50 71/1/50 79/1/50 82/1/50
