# Blender 4.2.1 LTS
# www.blender.org
mtllib tree01.mtl
o Cube
v 0.072327 0.180867 -0.089254
v 0.063495 -0.057483 -0.081838
v 0.072327 0.180867 0.079185
v 0.063495 -0.057483 0.086600
v -0.096111 0.180867 -0.089254
v -0.104944 -0.057483 -0.081838
v -0.096111 0.180867 0.079185
v -0.104944 -0.057483 0.086600
v -0.127367 -0.083852 0.006390
v 0.095088 0.178786 0.004720
v -0.118534 0.154498 -0.001025
v 0.086256 -0.059564 0.012136
v -0.026418 -0.065010 -0.114439
v -0.002349 0.169750 0.093988
v -0.011182 -0.068600 0.101404
v -0.017586 0.173340 -0.121855
v -0.020725 -0.057483 0.002381
v 0.004810 0.957181 0.007524
v -0.116264 0.958498 0.054677
v -0.020725 -0.057483 -0.039728
v -0.026418 0.019209 -0.114439
v -0.020725 -0.057483 0.044491
v -0.011182 0.015619 0.101404
v -0.056890 0.951459 0.064051
v -0.005116 0.502675 0.066532
v -0.077766 0.511289 0.055062
v 0.070383 0.509677 -0.002636
v 0.052746 0.511289 0.055062
v -0.095140 0.490857 -0.007088
v -0.077766 0.511289 -0.075451
v -0.016922 0.505457 -0.100712
v 0.052746 0.511289 -0.075451
v -0.040890 1.377580 0.126404
v -0.108868 1.378320 0.152879
v -0.075532 1.374367 0.158142
v -0.009603 0.958498 0.054677
v -0.130462 0.941801 0.003886
v -0.116264 0.958498 -0.051983
v -0.066539 0.953732 -0.072627
v -0.009603 0.958498 -0.051983
v -0.044566 1.679182 -0.005739
v -0.070592 1.679465 0.004398
v -0.057829 1.677952 0.006413
v -0.048982 1.378320 0.152879
v -0.116840 1.368945 0.124361
v -0.108868 1.378320 0.092993
v -0.080949 1.375643 0.081402
v -0.048982 1.378320 0.092993
v -0.130462 0.941801 0.003886
v -0.095140 0.490857 -0.007088
v -0.077766 0.511289 0.055062
v -0.047665 1.679465 0.004398
v -0.073645 1.675876 -0.006521
v -0.070592 1.679465 -0.018530
v -0.059904 1.678440 -0.022968
v -0.047665 1.679465 -0.018530
v -0.059129 1.679465 -0.007066
v -0.059129 1.679465 -0.012798
v -0.059129 1.679465 -0.001334
v -0.116264 0.958498 0.054677
v 0.000282 0.887595 0.054738
v 0.015206 0.886231 0.005913
v 0.000282 0.887595 -0.055704
v -0.058672 0.882660 -0.077080
v -0.124862 0.870305 0.002146
v -0.110160 0.887595 0.054738
v -0.110160 0.887595 -0.055704
v -0.048682 0.880306 0.064445
v -0.124862 0.870305 0.002146
v -0.110160 0.887595 0.054738
v -0.262602 1.080851 -0.099136
v -0.255587 1.089100 -0.126739
v -0.252571 1.054070 -0.128577
v -0.259835 1.045527 -0.099996
v -0.044658 1.332222 0.077074
v -0.079367 1.329316 0.064489
v -0.118336 1.322043 0.111133
v -0.044658 1.332222 0.142096
v -0.109680 1.332222 0.142096
v -0.073485 1.327930 0.147810
v -0.035872 1.331419 0.113350
v -0.109680 1.332222 0.077074
v 0.092517 1.394915 0.150127
v 0.088193 1.441013 0.160910
v 0.096286 1.440274 0.134435
v 0.101304 1.394112 0.121382
v 0.162038 1.487236 0.112475
v 0.159959 1.509406 0.117661
v 0.163851 1.509050 0.104929
v 0.166264 1.486851 0.098651
vn 0.9700 0.0672 -0.2335
vn -0.1677 0.0369 0.9851
vn -0.9708 0.0286 -0.2382
vn 0.0181 -0.9987 -0.0471
vn 0.9558 -0.0263 0.2929
vn 0.3264 -0.0415 -0.9443
vn 0.9708 -0.0433 -0.2361
vn 0.0071 -0.9997 0.0230
vn -0.9658 0.0437 0.2556
vn -0.1462 0.0801 0.9860
vn 0.3359 0.0592 -0.9400
vn 0.0998 -0.9915 -0.0832
vn -0.3778 -0.0148 -0.9258
vn 0.1000 -0.9923 0.0733
vn 0.2035 0.0229 0.9788
vn 0.1820 0.0823 0.9798
vn -0.3821 0.0156 -0.9240
vn 0.9489 0.1325 0.2863
vn 0.3322 0.0956 -0.9383
vn -0.0000 1.0000 -0.0000
vn -0.9716 0.0635 -0.2280
vn 0.9540 0.0777 0.2894
vn -0.9665 0.0717 0.2466
vn -0.3779 0.0596 -0.9239
vn 0.2960 0.3365 -0.8940
vn -0.9576 -0.0496 0.2840
vn 0.2194 -0.2027 0.9544
vn -0.1776 -0.2212 0.9589
vn 0.9622 0.1462 -0.2298
vn -0.6580 -0.0698 0.7498
vn -0.1574 -0.0127 0.9875
vn 0.1905 0.0274 0.9813
vn 0.1114 0.4391 0.8915
vn -0.0871 0.4494 0.8891
vn -0.9711 0.0360 -0.2360
vn 0.9673 -0.0918 -0.2363
vn 0.0451 -0.2235 0.9737
vn -0.3385 0.3125 -0.8876
vn 0.9588 0.1688 -0.2285
vn -0.9713 0.0928 -0.2191
vn -0.1000 0.9923 -0.0733
vn -0.0998 0.9915 0.0832
vn -0.0071 0.9997 -0.0230
vn -0.0181 0.9987 0.0471
vn -0.9561 0.2180 0.1956
vn 0.3462 -0.3271 -0.8793
vn 0.9484 0.1369 0.2861
vn -0.3910 -0.2755 -0.8782
vn -0.9526 -0.0817 0.2932
vn -0.9618 -0.0689 -0.2650
vn -0.6224 -0.6923 -0.3651
vn 0.5352 0.0901 -0.8399
vn 0.5258 0.7690 0.3635
vn 0.9563 0.0215 0.2917
vn -0.5380 0.1747 -0.8247
vn 0.4038 -0.9027 0.1487
vn -0.0648 0.2650 -0.9621
vn -0.4038 0.9027 -0.1487
vn 0.5990 -0.1287 0.7904
vn 0.8191 -0.5089 0.2646
vn -0.7421 0.6242 -0.2443
vt 0.927854 0.580610
s 0
usemtl Material
f 10/1/1 1/1/1 32/1/1 27/1/1
f 15/1/2 23/1/2 14/1/2 7/1/2 8/1/2
f 9/1/3 11/1/3 5/1/3 6/1/3
f 17/1/4 12/1/4 4/1/4 15/1/4 22/1/4
f 12/1/5 10/1/5 3/1/5 4/1/5
f 13/1/6 21/1/6 16/1/6 1/1/6 2/1/6
f 2/1/7 1/1/7 10/1/7 12/1/7
f 13/1/8 2/1/8 12/1/8 17/1/8 20/1/8
f 8/1/9 7/1/9 11/1/9 9/1/9
f 7/1/10 14/1/10 25/1/10 26/1/10
f 1/1/11 16/1/11 31/1/11 32/1/11
f 6/1/12 13/1/12 20/1/12 17/1/12 9/1/12
f 6/1/13 5/1/13 16/1/13 21/1/13 13/1/13
f 9/1/14 17/1/14 22/1/14 15/1/14 8/1/14
f 4/1/15 3/1/15 14/1/15 23/1/15 15/1/15
f 14/1/16 3/1/16 28/1/16 25/1/16
f 64/1/17 67/1/17 38/1/17 39/1/17
f 61/1/18 62/1/18 18/1/18 36/1/18
f 63/1/19 64/1/19 39/1/19 40/1/19
f 29/1/20 26/1/20 51/1/20 50/1/20
f 5/1/21 11/1/21 29/1/21 30/1/21
f 3/1/22 10/1/22 27/1/22 28/1/22
f 11/1/23 7/1/23 26/1/23 29/1/23
f 16/1/24 5/1/24 30/1/24 31/1/24
f 75/1/25 76/1/25 47/1/25 48/1/25
f 77/1/26 79/1/26 34/1/26 45/1/26
f 80/1/27 78/1/27 44/1/27 35/1/27
f 79/1/28 80/1/28 35/1/28 34/1/28
f 62/1/29 63/1/29 40/1/29 18/1/29
f 65/1/30 37/1/30 71/1/30 74/1/30
f 66/1/31 68/1/31 24/1/31 19/1/31
f 68/1/32 61/1/32 36/1/32 24/1/32
f 35/1/33 44/1/33 52/1/33 43/1/33
f 34/1/34 35/1/34 43/1/34 42/1/34
f 46/1/35 45/1/35 53/1/35 54/1/35
f 33/1/36 48/1/36 56/1/36 41/1/36
f 44/1/37 78/1/37 83/1/37 84/1/37
f 76/1/38 82/1/38 46/1/38 47/1/38
f 81/1/39 75/1/39 48/1/39 33/1/39
f 82/1/40 77/1/40 45/1/40 46/1/40
f 57/1/41 53/1/41 42/1/41 43/1/41 59/1/41
f 55/1/42 54/1/42 53/1/42 57/1/42 58/1/42
f 56/1/43 55/1/43 58/1/43 57/1/43 41/1/43
f 41/1/44 57/1/44 59/1/44 43/1/44 52/1/44
f 45/1/45 34/1/45 42/1/45 53/1/45
f 48/1/46 47/1/46 55/1/46 56/1/46
f 44/1/47 33/1/47 41/1/47 52/1/47
f 47/1/48 46/1/48 54/1/48 55/1/48
f 69/1/49 70/1/49 60/1/49 49/1/49
f 65/1/20 29/1/20 50/1/20 69/1/20
f 19/1/20 37/1/20 49/1/20 60/1/20
f 66/1/20 19/1/20 60/1/20 70/1/20
f 26/1/20 66/1/20 70/1/20 51/1/20
f 37/1/20 65/1/20 69/1/20 49/1/20
f 50/1/49 51/1/49 70/1/49 69/1/49
f 25/1/32 28/1/32 61/1/32 68/1/32
f 26/1/31 25/1/31 68/1/31 66/1/31
f 30/1/50 29/1/50 65/1/50 67/1/50
f 27/1/29 32/1/29 63/1/29 62/1/29
f 32/1/19 31/1/19 64/1/19 63/1/19
f 28/1/18 27/1/18 62/1/18 61/1/18
f 31/1/17 30/1/17 67/1/17 64/1/17
f 73/1/50 74/1/50 71/1/50 72/1/50
f 67/1/51 65/1/51 74/1/51 73/1/51
f 38/1/52 67/1/52 73/1/52 72/1/52
f 37/1/53 38/1/53 72/1/53 71/1/53
f 38/1/40 37/1/40 77/1/40 82/1/40
f 18/1/39 40/1/39 75/1/39 81/1/39
f 39/1/38 38/1/38 82/1/38 76/1/38
f 36/1/54 18/1/54 81/1/54 78/1/54
f 19/1/28 24/1/28 80/1/28 79/1/28
f 24/1/27 36/1/27 78/1/27 80/1/27
f 37/1/26 19/1/26 79/1/26 77/1/26
f 40/1/25 39/1/25 76/1/25 75/1/25
f 86/1/55 85/1/55 89/1/55 90/1/55
f 78/1/56 81/1/56 86/1/56 83/1/56
f 81/1/57 33/1/57 85/1/57 86/1/57
f 33/1/58 44/1/58 84/1/58 85/1/58
f 87/1/54 90/1/54 89/1/54 88/1/54
f 84/1/59 83/1/59 87/1/59 88/1/59
f 83/1/60 86/1/60 90/1/60 87/1/60
f 85/1/61 84/1/61 88/1/61 89/1/61
